<?xml version="1.0" encoding="UTF-8"?>
<svg id="Layer_1" data-name="Layer 1" xmlns="http://www.w3.org/2000/svg" viewBox="0 0 1789.0493 1991.9974">
  <path d="M1722.3824,450.1001L973.9539,16.3049c-37.5079-21.7398-82.6502-21.7398-120.1581,0l-302.5478,175.3591.1467.2425-19.3007,10.3902,185.197,331.566,241.6614,407.3127v117.578l-10.5688-26.422-236.8917,405.0343-197.0148,342.8513,28.9825,15.6023,310.3361,179.8733c37.5079,21.7397,82.6502,21.7397,120.1581,0l748.4286-433.7952c41.0604-23.7991,66.6669-69.9514,66.6669-120.1587v-851.48c0-50.2074-25.6064-96.3597-66.6669-120.1586Z" fill="#a1459a" stroke-width="0"/>
  <path d="M948.3837,1032.3314l10.5688,26.422v-117.578l-241.6614-407.3127-185.197-331.566L71.7781,450.1001C27.5696,473.899,0,520.0513,0,570.2587v851.48c0,50.2073,27.5696,96.3596,71.7781,120.1587l442.6991,238.3196,197.0148-342.8513,236.8917-405.0343Z" fill="#7b4493" stroke-width="0"/>
  <g>
    <path d="M1171.5863,993.7416c148.4355-59.2903,244.9708-155.5583,244.9708-264.2418,0-180.1833-265.3189-326.2506-592.6065-326.2506-37.6607,0-74.498,1.9381-110.2067,5.6371-21.6461,2.2424-42.8783,5.1305-63.6254,8.63l63.735,110.3922,3.4377,5.9542c34.0181-4.3006,69.7711-6.596,106.6595-6.596,227.3209,0,411.6008,87.0726,411.6008,194.482s-184.2799,194.4821-411.6008,194.4821c-38.1336,0-75.0528-2.4538-110.0972-7.0393v153.5983c35.0444-4.5855,71.9636-7.0392,110.0972-7.0392,227.3209,0,411.6008,87.0725,411.6008,194.4821s-184.2799,194.482-411.6008,194.482c-38.1346,0-75.052-2.457-110.0972-7.0428-.7864-.1028-1.577-.2008-2.3614-.3059l-75.156,130.1739c25.1309,4.6143,51.016,8.3187,77.5174,11.0613,35.6759,3.6919,72.4734,5.6331,110.0972,5.6331,327.2876,0,592.6065-146.0673,592.6065-326.2506,0-108.6835-96.5353-204.9516-244.9708-264.2419Z" fill="#fff" stroke-width="0"/>
    <polygon points="671.1067 909.9474 671.1065 909.9474 671.1065 542.3911 565.0924 423.1108 501.2286 454.2776 501.2286 1056.8352 501.2287 1056.8352 501.2284 1517.1222 565.0923 1548.289 671.1063 1429.0088 671.1067 909.9474" fill="#fff" stroke-width="0"/>
  </g>
</svg>